<svg width="84" height="85" viewBox="0 0 84 85" fill="none" xmlns="http://www.w3.org/2000/svg">
<g id="Decoration/Icons">
<g id="Row">
<g id="icon / iconoir / circle" clip-path="url(#clip0_373_30245)">
<path id="Vector" d="M76.9996 80.2998C76.9996 78.5426 78.4242 77.118 80.1815 77.118C81.9387 77.118 83.3633 78.5426 83.3633 80.2998C83.3633 82.0571 81.9387 83.4816 80.1815 83.4816C78.4242 83.4816 76.9996 82.0571 76.9996 80.2998Z" stroke="#701A75" stroke-width="0.715909" stroke-linecap="round" stroke-linejoin="round"/>
</g>
<g id="icon / iconoir / circle_2" clip-path="url(#clip1_373_30245)">
<path id="Vector_2" d="M76.9996 65.0271C76.9996 63.2699 78.4242 61.8453 80.1815 61.8453C81.9387 61.8453 83.3633 63.2699 83.3633 65.0271C83.3633 66.7844 81.9387 68.2089 80.1815 68.2089C78.4242 68.2089 76.9996 66.7844 76.9996 65.0271Z" stroke="#701A75" stroke-width="0.715909" stroke-linecap="round" stroke-linejoin="round"/>
</g>
<g id="icon / iconoir / circle_3" clip-path="url(#clip2_373_30245)">
<path id="Vector_3" d="M76.9996 49.7543C76.9996 47.9971 78.4242 46.5725 80.1815 46.5725C81.9387 46.5725 83.3633 47.9971 83.3633 49.7543C83.3633 51.5116 81.9387 52.9362 80.1815 52.9362C78.4242 52.9362 76.9996 51.5116 76.9996 49.7543Z" stroke="#701A75" stroke-width="0.715909" stroke-linecap="round" stroke-linejoin="round"/>
</g>
<g id="icon / iconoir / circle_4" clip-path="url(#clip3_373_30245)">
<path id="Vector_4" d="M76.9996 34.4816C76.9996 32.7244 78.4242 31.2998 80.1815 31.2998C81.9387 31.2998 83.3633 32.7244 83.3633 34.4816C83.3633 36.2389 81.9387 37.6635 80.1815 37.6635C78.4242 37.6635 76.9996 36.2389 76.9996 34.4816Z" stroke="#701A75" stroke-width="0.715909" stroke-linecap="round" stroke-linejoin="round"/>
</g>
<g id="icon / iconoir / circle_5" clip-path="url(#clip4_373_30245)">
<path id="Vector_5" d="M76.9996 19.2089C76.9996 17.4516 78.4242 16.027 80.1815 16.027C81.9387 16.027 83.3633 17.4516 83.3633 19.2089C83.3633 20.9661 81.9387 22.3907 80.1815 22.3907C78.4242 22.3907 76.9996 20.9661 76.9996 19.2089Z" stroke="#701A75" stroke-width="0.715909" stroke-linecap="round" stroke-linejoin="round"/>
</g>
<g id="icon / iconoir / circle_6" clip-path="url(#clip5_373_30245)">
<path id="Vector_6" d="M76.9996 3.93616C76.9996 2.17891 78.4242 0.754344 80.1815 0.754344C81.9387 0.754344 83.3633 2.17891 83.3633 3.93616C83.3633 5.69343 81.9387 7.11798 80.1815 7.11798C78.4242 7.11798 76.9996 5.69343 76.9996 3.93616Z" stroke="#701A75" stroke-width="0.715909" stroke-linecap="round" stroke-linejoin="round"/>
</g>
</g>
<g id="Row_2">
<g id="icon / iconoir / circle_7" clip-path="url(#clip6_373_30245)">
<path id="Vector_7" d="M61.7262 80.2998C61.7262 78.5426 63.1508 77.118 64.908 77.118C66.6653 77.118 68.0898 78.5426 68.0898 80.2998C68.0898 82.0571 66.6653 83.4816 64.908 83.4816C63.1508 83.4816 61.7262 82.0571 61.7262 80.2998Z" stroke="#701A75" stroke-width="0.715909" stroke-linecap="round" stroke-linejoin="round"/>
</g>
<g id="icon / iconoir / circle_8" clip-path="url(#clip7_373_30245)">
<path id="Vector_8" d="M61.7262 65.0271C61.7262 63.2699 63.1508 61.8453 64.908 61.8453C66.6653 61.8453 68.0898 63.2699 68.0898 65.0271C68.0898 66.7844 66.6653 68.2089 64.908 68.2089C63.1508 68.2089 61.7262 66.7844 61.7262 65.0271Z" stroke="#701A75" stroke-width="0.715909" stroke-linecap="round" stroke-linejoin="round"/>
</g>
<g id="icon / iconoir / circle_9" clip-path="url(#clip8_373_30245)">
<path id="Vector_9" d="M61.7262 49.7543C61.7262 47.9971 63.1508 46.5725 64.908 46.5725C66.6653 46.5725 68.0898 47.9971 68.0898 49.7543C68.0898 51.5116 66.6653 52.9362 64.908 52.9362C63.1508 52.9362 61.7262 51.5116 61.7262 49.7543Z" stroke="#701A75" stroke-width="0.715909" stroke-linecap="round" stroke-linejoin="round"/>
</g>
<g id="icon / iconoir / circle_10" clip-path="url(#clip9_373_30245)">
<path id="Vector_10" d="M61.7262 34.4816C61.7262 32.7244 63.1508 31.2998 64.908 31.2998C66.6653 31.2998 68.0898 32.7244 68.0898 34.4816C68.0898 36.2389 66.6653 37.6635 64.908 37.6635C63.1508 37.6635 61.7262 36.2389 61.7262 34.4816Z" stroke="#701A75" stroke-width="0.715909" stroke-linecap="round" stroke-linejoin="round"/>
</g>
<g id="icon / iconoir / circle_11" clip-path="url(#clip10_373_30245)">
<path id="Vector_11" d="M61.7262 19.2089C61.7262 17.4516 63.1508 16.027 64.908 16.027C66.6653 16.027 68.0898 17.4516 68.0898 19.2089C68.0898 20.9661 66.6653 22.3907 64.908 22.3907C63.1508 22.3907 61.7262 20.9661 61.7262 19.2089Z" stroke="#701A75" stroke-width="0.715909" stroke-linecap="round" stroke-linejoin="round"/>
</g>
<g id="icon / iconoir / circle_12" clip-path="url(#clip11_373_30245)">
<path id="Vector_12" d="M61.7262 3.93616C61.7262 2.17891 63.1508 0.754344 64.908 0.754344C66.6653 0.754344 68.0898 2.17891 68.0898 3.93616C68.0898 5.69343 66.6653 7.11798 64.908 7.11798C63.1508 7.11798 61.7262 5.69343 61.7262 3.93616Z" stroke="#701A75" stroke-width="0.715909" stroke-linecap="round" stroke-linejoin="round"/>
</g>
</g>
<g id="Row_3">
<g id="icon / iconoir / circle_13" clip-path="url(#clip12_373_30245)">
<path id="Vector_13" d="M46.4547 80.2998C46.4547 78.5426 47.8793 77.118 49.6365 77.118C51.3938 77.118 52.8184 78.5426 52.8184 80.2998C52.8184 82.0571 51.3938 83.4816 49.6365 83.4816C47.8793 83.4816 46.4547 82.0571 46.4547 80.2998Z" stroke="#701A75" stroke-width="0.715909" stroke-linecap="round" stroke-linejoin="round"/>
</g>
<g id="icon / iconoir / circle_14" clip-path="url(#clip13_373_30245)">
<path id="Vector_14" d="M46.4547 65.0271C46.4547 63.2699 47.8793 61.8453 49.6365 61.8453C51.3938 61.8453 52.8184 63.2699 52.8184 65.0271C52.8184 66.7844 51.3938 68.2089 49.6365 68.2089C47.8793 68.2089 46.4547 66.7844 46.4547 65.0271Z" stroke="#701A75" stroke-width="0.715909" stroke-linecap="round" stroke-linejoin="round"/>
</g>
<g id="icon / iconoir / circle_15" clip-path="url(#clip14_373_30245)">
<path id="Vector_15" d="M46.4547 49.7543C46.4547 47.9971 47.8793 46.5725 49.6365 46.5725C51.3938 46.5725 52.8184 47.9971 52.8184 49.7543C52.8184 51.5116 51.3938 52.9362 49.6365 52.9362C47.8793 52.9362 46.4547 51.5116 46.4547 49.7543Z" stroke="#701A75" stroke-width="0.715909" stroke-linecap="round" stroke-linejoin="round"/>
</g>
<g id="icon / iconoir / circle_16" clip-path="url(#clip15_373_30245)">
<path id="Vector_16" d="M46.4547 34.4816C46.4547 32.7244 47.8793 31.2998 49.6365 31.2998C51.3938 31.2998 52.8184 32.7244 52.8184 34.4816C52.8184 36.2389 51.3938 37.6635 49.6365 37.6635C47.8793 37.6635 46.4547 36.2389 46.4547 34.4816Z" stroke="#701A75" stroke-width="0.715909" stroke-linecap="round" stroke-linejoin="round"/>
</g>
<g id="icon / iconoir / circle_17" clip-path="url(#clip16_373_30245)">
<path id="Vector_17" d="M46.4547 19.2089C46.4547 17.4517 47.8793 16.0271 49.6365 16.0271C51.3938 16.0271 52.8184 17.4517 52.8184 19.2089C52.8184 20.9662 51.3938 22.3907 49.6365 22.3907C47.8793 22.3907 46.4547 20.9662 46.4547 19.2089Z" stroke="#701A75" stroke-width="0.715909" stroke-linecap="round" stroke-linejoin="round"/>
</g>
<g id="icon / iconoir / circle_18" clip-path="url(#clip17_373_30245)">
<path id="Vector_18" d="M46.4547 3.93616C46.4547 2.17891 47.8793 0.754344 49.6365 0.754344C51.3938 0.754344 52.8184 2.17891 52.8184 3.93616C52.8184 5.69343 51.3938 7.11798 49.6365 7.11798C47.8793 7.11798 46.4547 5.69343 46.4547 3.93616Z" stroke="#701A75" stroke-width="0.715909" stroke-linecap="round" stroke-linejoin="round"/>
</g>
</g>
<g id="Row_4">
<g id="icon / iconoir / circle_19" clip-path="url(#clip18_373_30245)">
<path id="Vector_19" d="M31.1813 80.2998C31.1813 78.5426 32.6058 77.118 34.3631 77.118C36.1204 77.118 37.5449 78.5426 37.5449 80.2998C37.5449 82.0571 36.1204 83.4816 34.3631 83.4816C32.6058 83.4816 31.1813 82.0571 31.1813 80.2998Z" stroke="#701A75" stroke-width="0.715909" stroke-linecap="round" stroke-linejoin="round"/>
</g>
<g id="icon / iconoir / circle_20" clip-path="url(#clip19_373_30245)">
<path id="Vector_20" d="M31.1813 65.0271C31.1813 63.2699 32.6058 61.8453 34.3631 61.8453C36.1204 61.8453 37.5449 63.2699 37.5449 65.0271C37.5449 66.7844 36.1204 68.2089 34.3631 68.2089C32.6058 68.2089 31.1813 66.7844 31.1813 65.0271Z" stroke="#701A75" stroke-width="0.715909" stroke-linecap="round" stroke-linejoin="round"/>
</g>
<g id="icon / iconoir / circle_21" clip-path="url(#clip20_373_30245)">
<path id="Vector_21" d="M31.1813 49.7543C31.1813 47.9971 32.6058 46.5725 34.3631 46.5725C36.1204 46.5725 37.5449 47.9971 37.5449 49.7543C37.5449 51.5116 36.1204 52.9362 34.3631 52.9362C32.6058 52.9362 31.1813 51.5116 31.1813 49.7543Z" stroke="#701A75" stroke-width="0.715909" stroke-linecap="round" stroke-linejoin="round"/>
</g>
<g id="icon / iconoir / circle_22" clip-path="url(#clip21_373_30245)">
<path id="Vector_22" d="M31.1813 34.4816C31.1813 32.7244 32.6058 31.2998 34.3631 31.2998C36.1204 31.2998 37.5449 32.7244 37.5449 34.4816C37.5449 36.2389 36.1204 37.6635 34.3631 37.6635C32.6058 37.6635 31.1813 36.2389 31.1813 34.4816Z" stroke="#701A75" stroke-width="0.715909" stroke-linecap="round" stroke-linejoin="round"/>
</g>
<g id="icon / iconoir / circle_23" clip-path="url(#clip22_373_30245)">
<path id="Vector_23" d="M31.1813 19.2089C31.1813 17.4516 32.6058 16.027 34.3631 16.027C36.1204 16.027 37.5449 17.4516 37.5449 19.2089C37.5449 20.9661 36.1204 22.3907 34.3631 22.3907C32.6058 22.3907 31.1813 20.9661 31.1813 19.2089Z" stroke="#701A75" stroke-width="0.715909" stroke-linecap="round" stroke-linejoin="round"/>
</g>
<g id="icon / iconoir / circle_24" clip-path="url(#clip23_373_30245)">
<path id="Vector_24" d="M31.1813 3.93616C31.1813 2.17891 32.6058 0.754344 34.3631 0.754344C36.1204 0.754344 37.5449 2.17891 37.5449 3.93616C37.5449 5.69343 36.1204 7.11798 34.3631 7.11798C32.6058 7.11798 31.1813 5.69343 31.1813 3.93616Z" stroke="#701A75" stroke-width="0.715909" stroke-linecap="round" stroke-linejoin="round"/>
</g>
</g>
<g id="Row_5">
<g id="icon / iconoir / circle_25" clip-path="url(#clip24_373_30245)">
<path id="Vector_25" d="M15.9078 80.2998C15.9078 78.5426 17.3324 77.118 19.0897 77.118C20.8469 77.118 22.2715 78.5426 22.2715 80.2998C22.2715 82.0571 20.8469 83.4816 19.0897 83.4816C17.3324 83.4816 15.9078 82.0571 15.9078 80.2998Z" stroke="#701A75" stroke-width="0.715909" stroke-linecap="round" stroke-linejoin="round"/>
</g>
<g id="icon / iconoir / circle_26" clip-path="url(#clip25_373_30245)">
<path id="Vector_26" d="M15.9078 65.0271C15.9078 63.2699 17.3324 61.8453 19.0897 61.8453C20.8469 61.8453 22.2715 63.2699 22.2715 65.0271C22.2715 66.7844 20.8469 68.2089 19.0897 68.2089C17.3324 68.2089 15.9078 66.7844 15.9078 65.0271Z" stroke="#701A75" stroke-width="0.715909" stroke-linecap="round" stroke-linejoin="round"/>
</g>
<g id="icon / iconoir / circle_27" clip-path="url(#clip26_373_30245)">
<path id="Vector_27" d="M15.9078 49.7543C15.9078 47.9971 17.3324 46.5725 19.0897 46.5725C20.8469 46.5725 22.2715 47.9971 22.2715 49.7543C22.2715 51.5116 20.8469 52.9362 19.0897 52.9362C17.3324 52.9362 15.9078 51.5116 15.9078 49.7543Z" stroke="#701A75" stroke-width="0.715909" stroke-linecap="round" stroke-linejoin="round"/>
</g>
<g id="icon / iconoir / circle_28" clip-path="url(#clip27_373_30245)">
<path id="Vector_28" d="M15.9078 34.4816C15.9078 32.7244 17.3324 31.2998 19.0897 31.2998C20.8469 31.2998 22.2715 32.7244 22.2715 34.4816C22.2715 36.2389 20.8469 37.6635 19.0897 37.6635C17.3324 37.6635 15.9078 36.2389 15.9078 34.4816Z" stroke="#701A75" stroke-width="0.715909" stroke-linecap="round" stroke-linejoin="round"/>
</g>
<g id="icon / iconoir / circle_29" clip-path="url(#clip28_373_30245)">
<path id="Vector_29" d="M15.9078 19.2089C15.9078 17.4516 17.3324 16.027 19.0897 16.027C20.8469 16.027 22.2715 17.4516 22.2715 19.2089C22.2715 20.9661 20.8469 22.3907 19.0897 22.3907C17.3324 22.3907 15.9078 20.9661 15.9078 19.2089Z" stroke="#701A75" stroke-width="0.715909" stroke-linecap="round" stroke-linejoin="round"/>
</g>
<g id="icon / iconoir / circle_30" clip-path="url(#clip29_373_30245)">
<path id="Vector_30" d="M15.9078 3.93616C15.9078 2.17891 17.3324 0.754344 19.0897 0.754344C20.8469 0.754344 22.2715 2.17891 22.2715 3.93616C22.2715 5.69343 20.8469 7.11798 19.0897 7.11798C17.3324 7.11798 15.9078 5.69343 15.9078 3.93616Z" stroke="#701A75" stroke-width="0.715909" stroke-linecap="round" stroke-linejoin="round"/>
</g>
</g>
<g id="Row_6">
<g id="icon / iconoir / circle_31" clip-path="url(#clip30_373_30245)">
<path id="Vector_31" d="M0.636363 80.2998C0.636363 78.5426 2.06093 77.118 3.81818 77.118C5.57545 77.118 7 78.5426 7 80.2998C7 82.0571 5.57545 83.4816 3.81818 83.4816C2.06093 83.4816 0.636363 82.0571 0.636363 80.2998Z" stroke="#701A75" stroke-width="0.715909" stroke-linecap="round" stroke-linejoin="round"/>
</g>
<g id="icon / iconoir / circle_32" clip-path="url(#clip31_373_30245)">
<path id="Vector_32" d="M0.636363 65.0271C0.636363 63.2699 2.06093 61.8453 3.81818 61.8453C5.57545 61.8453 7 63.2699 7 65.0271C7 66.7844 5.57545 68.2089 3.81818 68.2089C2.06093 68.2089 0.636363 66.7844 0.636363 65.0271Z" stroke="#701A75" stroke-width="0.715909" stroke-linecap="round" stroke-linejoin="round"/>
</g>
<g id="icon / iconoir / circle_33" clip-path="url(#clip32_373_30245)">
<path id="Vector_33" d="M0.636363 49.7543C0.636363 47.9971 2.06093 46.5725 3.81818 46.5725C5.57545 46.5725 7 47.9971 7 49.7543C7 51.5116 5.57545 52.9362 3.81818 52.9362C2.06093 52.9362 0.636363 51.5116 0.636363 49.7543Z" stroke="#701A75" stroke-width="0.715909" stroke-linecap="round" stroke-linejoin="round"/>
</g>
<g id="icon / iconoir / circle_34" clip-path="url(#clip33_373_30245)">
<path id="Vector_34" d="M0.636363 34.4816C0.636363 32.7244 2.06093 31.2998 3.81818 31.2998C5.57545 31.2998 7 32.7244 7 34.4816C7 36.2389 5.57545 37.6635 3.81818 37.6635C2.06093 37.6635 0.636363 36.2389 0.636363 34.4816Z" stroke="#701A75" stroke-width="0.715909" stroke-linecap="round" stroke-linejoin="round"/>
</g>
<g id="icon / iconoir / circle_35" clip-path="url(#clip34_373_30245)">
<path id="Vector_35" d="M0.636363 19.2089C0.636363 17.4517 2.06093 16.0271 3.81818 16.0271C5.57545 16.0271 7 17.4517 7 19.2089C7 20.9662 5.57545 22.3907 3.81818 22.3907C2.06093 22.3907 0.636363 20.9662 0.636363 19.2089Z" stroke="#701A75" stroke-width="0.715909" stroke-linecap="round" stroke-linejoin="round"/>
</g>
<g id="icon / iconoir / circle_36" clip-path="url(#clip35_373_30245)">
<path id="Vector_36" d="M0.636363 3.93616C0.636363 2.17891 2.06093 0.754344 3.81818 0.754344C5.57545 0.754344 7 2.17891 7 3.93616C7 5.69343 5.57545 7.11798 3.81818 7.11798C2.06093 7.11798 0.636363 5.69343 0.636363 3.93616Z" stroke="#701A75" stroke-width="0.715909" stroke-linecap="round" stroke-linejoin="round"/>
</g>
</g>
</g>
<defs>
<clipPath id="clip0_373_30245">
<rect width="7.63636" height="7.63636" fill="white" transform="matrix(-4.37114e-08 -1 -1 4.37114e-08 84 84.118)"/>
</clipPath>
<clipPath id="clip1_373_30245">
<rect width="7.63636" height="7.63636" fill="white" transform="matrix(-4.37114e-08 -1 -1 4.37114e-08 84 68.8453)"/>
</clipPath>
<clipPath id="clip2_373_30245">
<rect width="7.63636" height="7.63636" fill="white" transform="matrix(-4.37114e-08 -1 -1 4.37114e-08 84 53.5725)"/>
</clipPath>
<clipPath id="clip3_373_30245">
<rect width="7.63636" height="7.63636" fill="white" transform="matrix(-4.37114e-08 -1 -1 4.37114e-08 84 38.2998)"/>
</clipPath>
<clipPath id="clip4_373_30245">
<rect width="7.63636" height="7.63636" fill="white" transform="matrix(-4.37114e-08 -1 -1 4.37114e-08 84 23.027)"/>
</clipPath>
<clipPath id="clip5_373_30245">
<rect width="7.63636" height="7.63636" fill="white" transform="matrix(-4.37114e-08 -1 -1 4.37114e-08 84 7.75433)"/>
</clipPath>
<clipPath id="clip6_373_30245">
<rect width="7.63636" height="7.63636" fill="white" transform="matrix(-4.37114e-08 -1 -1 4.37114e-08 68.7266 84.118)"/>
</clipPath>
<clipPath id="clip7_373_30245">
<rect width="7.63636" height="7.63636" fill="white" transform="matrix(-4.37114e-08 -1 -1 4.37114e-08 68.7266 68.8453)"/>
</clipPath>
<clipPath id="clip8_373_30245">
<rect width="7.63636" height="7.63636" fill="white" transform="matrix(-4.37114e-08 -1 -1 4.37114e-08 68.7266 53.5725)"/>
</clipPath>
<clipPath id="clip9_373_30245">
<rect width="7.63636" height="7.63636" fill="white" transform="matrix(-4.37114e-08 -1 -1 4.37114e-08 68.7266 38.2998)"/>
</clipPath>
<clipPath id="clip10_373_30245">
<rect width="7.63636" height="7.63636" fill="white" transform="matrix(-4.37114e-08 -1 -1 4.37114e-08 68.7266 23.027)"/>
</clipPath>
<clipPath id="clip11_373_30245">
<rect width="7.63636" height="7.63636" fill="white" transform="matrix(-4.37114e-08 -1 -1 4.37114e-08 68.7266 7.75433)"/>
</clipPath>
<clipPath id="clip12_373_30245">
<rect width="7.63636" height="7.63636" fill="white" transform="matrix(-4.37114e-08 -1 -1 4.37114e-08 53.4551 84.118)"/>
</clipPath>
<clipPath id="clip13_373_30245">
<rect width="7.63636" height="7.63636" fill="white" transform="matrix(-4.37114e-08 -1 -1 4.37114e-08 53.4551 68.8453)"/>
</clipPath>
<clipPath id="clip14_373_30245">
<rect width="7.63636" height="7.63636" fill="white" transform="matrix(-4.37114e-08 -1 -1 4.37114e-08 53.4551 53.5725)"/>
</clipPath>
<clipPath id="clip15_373_30245">
<rect width="7.63636" height="7.63636" fill="white" transform="matrix(-4.37114e-08 -1 -1 4.37114e-08 53.4551 38.2998)"/>
</clipPath>
<clipPath id="clip16_373_30245">
<rect width="7.63636" height="7.63636" fill="white" transform="matrix(-4.37114e-08 -1 -1 4.37114e-08 53.4551 23.0271)"/>
</clipPath>
<clipPath id="clip17_373_30245">
<rect width="7.63636" height="7.63636" fill="white" transform="matrix(-4.37114e-08 -1 -1 4.37114e-08 53.4551 7.75433)"/>
</clipPath>
<clipPath id="clip18_373_30245">
<rect width="7.63636" height="7.63636" fill="white" transform="matrix(-4.37114e-08 -1 -1 4.37114e-08 38.1816 84.118)"/>
</clipPath>
<clipPath id="clip19_373_30245">
<rect width="7.63636" height="7.63636" fill="white" transform="matrix(-4.37114e-08 -1 -1 4.37114e-08 38.1816 68.8453)"/>
</clipPath>
<clipPath id="clip20_373_30245">
<rect width="7.63636" height="7.63636" fill="white" transform="matrix(-4.37114e-08 -1 -1 4.37114e-08 38.1816 53.5725)"/>
</clipPath>
<clipPath id="clip21_373_30245">
<rect width="7.63636" height="7.63636" fill="white" transform="matrix(-4.37114e-08 -1 -1 4.37114e-08 38.1816 38.2998)"/>
</clipPath>
<clipPath id="clip22_373_30245">
<rect width="7.63636" height="7.63636" fill="white" transform="matrix(-4.37114e-08 -1 -1 4.37114e-08 38.1816 23.027)"/>
</clipPath>
<clipPath id="clip23_373_30245">
<rect width="7.63636" height="7.63636" fill="white" transform="matrix(-4.37114e-08 -1 -1 4.37114e-08 38.1816 7.75433)"/>
</clipPath>
<clipPath id="clip24_373_30245">
<rect width="7.63636" height="7.63636" fill="white" transform="matrix(-4.37114e-08 -1 -1 4.37114e-08 22.9082 84.118)"/>
</clipPath>
<clipPath id="clip25_373_30245">
<rect width="7.63636" height="7.63636" fill="white" transform="matrix(-4.37114e-08 -1 -1 4.37114e-08 22.9082 68.8453)"/>
</clipPath>
<clipPath id="clip26_373_30245">
<rect width="7.63636" height="7.63636" fill="white" transform="matrix(-4.37114e-08 -1 -1 4.37114e-08 22.9082 53.5725)"/>
</clipPath>
<clipPath id="clip27_373_30245">
<rect width="7.63636" height="7.63636" fill="white" transform="matrix(-4.37114e-08 -1 -1 4.37114e-08 22.9082 38.2998)"/>
</clipPath>
<clipPath id="clip28_373_30245">
<rect width="7.63636" height="7.63636" fill="white" transform="matrix(-4.37114e-08 -1 -1 4.37114e-08 22.9082 23.027)"/>
</clipPath>
<clipPath id="clip29_373_30245">
<rect width="7.63636" height="7.63636" fill="white" transform="matrix(-4.37114e-08 -1 -1 4.37114e-08 22.9082 7.75433)"/>
</clipPath>
<clipPath id="clip30_373_30245">
<rect width="7.63636" height="7.63636" fill="white" transform="matrix(-4.37114e-08 -1 -1 4.37114e-08 7.63672 84.118)"/>
</clipPath>
<clipPath id="clip31_373_30245">
<rect width="7.63636" height="7.63636" fill="white" transform="matrix(-4.37114e-08 -1 -1 4.37114e-08 7.63672 68.8453)"/>
</clipPath>
<clipPath id="clip32_373_30245">
<rect width="7.63636" height="7.63636" fill="white" transform="matrix(-4.37114e-08 -1 -1 4.37114e-08 7.63672 53.5725)"/>
</clipPath>
<clipPath id="clip33_373_30245">
<rect width="7.63636" height="7.63636" fill="white" transform="matrix(-4.37114e-08 -1 -1 4.37114e-08 7.63672 38.2998)"/>
</clipPath>
<clipPath id="clip34_373_30245">
<rect width="7.63636" height="7.63636" fill="white" transform="matrix(-4.37114e-08 -1 -1 4.37114e-08 7.63672 23.0271)"/>
</clipPath>
<clipPath id="clip35_373_30245">
<rect width="7.63636" height="7.63636" fill="white" transform="matrix(-4.37114e-08 -1 -1 4.37114e-08 7.63672 7.75433)"/>
</clipPath>
</defs>
</svg>
