<svg width="1100" height="686" viewBox="0 0 1100 686" fill="none" xmlns="http://www.w3.org/2000/svg">
<g id="Desktop-App-Placeholder-1">
<rect width="1100" height="686" fill="#E0F2FE"/>
<path id="Rectangle 9" d="M0 0.914673H184.255V686H0V0.914673Z" fill="#BAE6FD"/>
<path id="Title" d="M22.1113 65.856C22.1113 59.7941 27.0609 54.88 33.1666 54.88H151.09C157.195 54.88 162.145 59.7941 162.145 65.856V65.856C162.145 71.9179 157.195 76.832 151.09 76.832H33.1666C27.0609 76.832 22.1113 71.9179 22.1113 65.856V65.856Z" fill="#7DD3FC"/>
<path id="Rectangle 4" d="M66.332 142.688C66.332 139.657 68.8068 137.2 71.8597 137.2H163.987C167.04 137.2 169.515 139.657 169.515 142.688V142.688C169.515 145.719 167.04 148.176 163.987 148.176H71.8597C68.8068 148.176 66.332 145.719 66.332 142.688V142.688Z" fill="white"/>
<path id="Rectangle 11" d="M66.332 201.227C66.332 198.196 68.8068 195.739 71.8597 195.739H135.428C138.48 195.739 140.955 198.196 140.955 201.227V201.227C140.955 204.258 138.48 206.715 135.428 206.715H71.8597C68.8068 206.715 66.332 204.258 66.332 201.227V201.227Z" fill="white"/>
<path id="Rectangle 12" d="M66.332 259.765C66.332 256.734 68.8068 254.277 71.8597 254.277H151.089C154.142 254.277 156.617 256.734 156.617 259.765V259.765C156.617 262.796 154.142 265.253 151.089 265.253H71.8597C68.8068 265.253 66.332 262.796 66.332 259.765V259.765Z" fill="white"/>
<path id="Ellipse 5 (Stroke)" fill-rule="evenodd" clip-rule="evenodd" d="M36.8517 154.579C43.4662 154.579 48.8282 149.255 48.8282 142.688C48.8282 136.121 43.4662 130.797 36.8517 130.797C30.2372 130.797 24.8751 136.121 24.8751 142.688C24.8751 149.255 30.2372 154.579 36.8517 154.579ZM36.8517 157.323C44.9926 157.323 51.5921 150.771 51.5921 142.688C51.5921 134.606 44.9926 128.053 36.8517 128.053C28.7108 128.053 22.1113 134.606 22.1113 142.688C22.1113 150.771 28.7108 157.323 36.8517 157.323Z" fill="#7DD3FC"/>
<path id="Title_2" d="M243.217 65.856C243.217 61.8147 246.517 58.5387 250.587 58.5387H357.455C361.525 58.5387 364.825 61.8147 364.825 65.856V65.856C364.825 69.8973 361.525 73.1733 357.455 73.1733H250.587C246.517 73.1733 243.217 69.8973 243.217 65.856V65.856Z" fill="#BAE6FD"/>
<g id="Group 2">
<g id="icon / ionicons / outline / heart-outline">
<path id="Vector (Stroke)" fill-rule="evenodd" clip-rule="evenodd" d="M438.987 360.891C439.041 355.674 443.216 351.232 448.581 351.232C451.874 351.232 454.297 352.85 455.843 354.374C456.273 354.799 456.643 355.222 456.952 355.612C457.261 355.222 457.631 354.799 458.061 354.374C459.607 352.85 462.03 351.232 465.323 351.232C470.688 351.232 474.863 355.674 474.917 360.891L474.917 360.892C475.019 371.067 466.784 378.106 458.507 383.685C458.048 383.994 457.507 384.16 456.952 384.16C456.398 384.16 455.856 383.994 455.397 383.685C447.119 378.106 438.884 371.067 438.987 360.892L438.987 360.891ZM458.186 358.709C457.952 359.172 457.474 359.464 456.952 359.464C456.43 359.464 455.952 359.172 455.718 358.709C455.717 358.708 455.717 358.707 455.716 358.706C455.714 358.702 455.712 358.697 455.708 358.69C455.706 358.686 455.703 358.681 455.701 358.676C455.685 358.648 455.659 358.6 455.623 358.538C455.551 358.412 455.438 358.225 455.284 357.997C454.975 357.539 454.512 356.929 453.896 356.322C452.658 355.101 450.895 353.976 448.581 353.976C444.833 353.976 441.791 357.104 441.751 360.919M458.186 358.709C458.187 358.708 458.187 358.707 458.188 358.706C458.191 358.701 458.196 358.691 458.204 358.676C458.219 358.648 458.245 358.6 458.281 358.538C458.353 358.412 458.466 358.225 458.62 357.997C458.929 357.539 459.393 356.929 460.008 356.322C461.246 355.101 463.009 353.976 465.323 353.976C469.071 353.976 472.114 357.103 472.153 360.919C472.239 369.494 465.303 375.788 456.953 381.415L456.952 381.416L456.951 381.415C448.6 375.788 441.664 369.494 441.751 360.92" fill="white"/>
</g>
<path id="Title_3" d="M243.217 367.696C243.217 363.655 246.517 360.379 250.587 360.379H300.336C304.406 360.379 307.706 363.655 307.706 367.696V367.696C307.706 371.737 304.406 375.013 300.336 375.013H250.587C246.517 375.013 243.217 371.737 243.217 367.696V367.696Z" fill="#BAE6FD"/>
<path id="Title_4" d="M322.445 367.696C322.445 363.655 325.745 360.379 329.815 360.379H412.73C416.801 360.379 420.1 363.655 420.1 367.696V367.696C420.1 371.737 416.801 375.013 412.73 375.013H329.815C325.745 375.013 322.445 371.737 322.445 367.696V367.696Z" fill="#BAE6FD"/>
<g id="Description">
<path id="Rectangle 4_2" d="M243.217 439.04C243.217 436.009 245.692 433.552 248.744 433.552H326.131C329.184 433.552 331.659 436.009 331.659 439.04V439.04C331.659 442.071 329.184 444.528 326.131 444.528H248.744C245.692 444.528 243.217 442.071 243.217 439.04V439.04Z" fill="white"/>
<path id="Rectangle 6" d="M243.217 464.651C243.217 461.62 245.692 459.163 248.744 459.163H367.589C370.641 459.163 373.116 461.62 373.116 464.651V464.651C373.116 467.682 370.641 470.139 367.589 470.139H248.744C245.692 470.139 243.217 467.682 243.217 464.651V464.651Z" fill="white"/>
<path id="Rectangle 5" d="M346.398 439.04C346.398 436.009 348.873 433.552 351.926 433.552H444.053C447.106 433.552 449.581 436.009 449.581 439.04V439.04C449.581 442.071 447.106 444.528 444.053 444.528H351.926C348.873 444.528 346.398 442.071 346.398 439.04V439.04Z" fill="white"/>
</g>
</g>
<g id="Description_2">
<path id="Rectangle 4_3" d="M243.217 137.2C243.217 134.169 245.692 131.712 248.744 131.712H326.131C329.184 131.712 331.659 134.169 331.659 137.2V137.2C331.659 140.231 329.184 142.688 326.131 142.688H248.744C245.692 142.688 243.217 140.231 243.217 137.2V137.2Z" fill="white"/>
<path id="Rectangle 6_2" d="M243.217 162.811C243.217 159.78 245.692 157.323 248.744 157.323H439.448C442.501 157.323 444.976 159.78 444.976 162.811V162.811C444.976 165.842 442.501 168.299 439.448 168.299H248.744C245.692 168.299 243.217 165.842 243.217 162.811V162.811Z" fill="white"/>
<path id="Rectangle 5_2" d="M346.398 137.2C346.398 134.169 348.873 131.712 351.926 131.712H561.976C565.029 131.712 567.504 134.169 567.504 137.2V137.2C567.504 140.231 565.029 142.688 561.976 142.688H351.926C348.873 142.688 346.398 140.231 346.398 137.2V137.2Z" fill="white"/>
</g>
<path id="Rectangle 10 (Stroke)" fill-rule="evenodd" clip-rule="evenodd" d="M49.7482 189.336H25.7951V213.117H49.7482V189.336ZM23.0312 186.592V215.861H52.512V186.592H23.0312Z" fill="#38BDF8"/>
<g id="Frame 2">
<g clip-path="url(#clip0_835_6845)">
<rect x="638.441" y="65.856" width="184.255" height="250.619" rx="20" fill="white"/>
<g id="Group 1">
<path id="Ellipse 3" d="M761.179 316.691C761.179 380.109 709.826 431.52 646.478 431.52C583.131 431.52 531.777 380.109 531.777 316.691C531.777 253.273 583.131 201.862 646.478 201.862C709.826 201.862 761.179 253.273 761.179 316.691Z" fill="#FACC15"/>
</g>
<path id="Rectangle 10 (Stroke)_2" fill-rule="evenodd" clip-rule="evenodd" d="M848.274 163.461L788.342 103.958L728.409 163.461L788.342 222.963L848.274 163.461ZM788.342 98.784L723.198 163.461L788.342 228.137L853.486 163.461L788.342 98.784Z" fill="#BAE6FD"/>
</g>
</g>
<path id="Polygon 1" d="M37.7716 246.96L52.512 272.308H23.0312L37.7716 246.96Z" fill="#7DD3FC"/>
<g id="Frame 3">
<rect x="852.178" y="65.856" width="184.255" height="184.763" rx="20" fill="white"/>
<g id="Group 1_2">
<path id="Ellipse 5 (Stroke)_2" fill-rule="evenodd" clip-rule="evenodd" d="M935.062 203.62C953.432 203.62 968.198 188.972 968.198 171.055C968.198 153.138 953.432 138.49 935.062 138.49C916.692 138.49 901.926 153.138 901.926 171.055C901.926 188.972 916.692 203.62 935.062 203.62ZM935.062 212.767C958.45 212.767 977.411 194.092 977.411 171.055C977.411 148.018 958.45 129.343 935.062 129.343C911.673 129.343 892.713 148.018 892.713 171.055C892.713 194.092 911.673 212.767 935.062 212.767Z" fill="#BAE6FD"/>
</g>
<path id="Polygon 1_2" d="M954.31 157.852L966.494 112.709L999.779 145.756L954.31 157.852Z" fill="#FACC15"/>
</g>
<g id="Frame 5">
<g clip-path="url(#clip1_835_6845)">
<rect x="638.441" y="345.744" width="184.255" height="279.888" rx="20" fill="white"/>
<path id="Ellipse 3 (Stroke)" fill-rule="evenodd" clip-rule="evenodd" d="M811.181 661.304C862.825 661.304 904.69 619.739 904.69 568.465C904.69 517.192 862.825 475.627 811.181 475.627C759.537 475.627 717.672 517.192 717.672 568.465C717.672 619.739 759.537 661.304 811.181 661.304ZM811.181 670.451C867.913 670.451 913.903 624.79 913.903 568.465C913.903 512.14 867.913 466.48 811.181 466.48C754.449 466.48 708.459 512.14 708.459 568.465C708.459 624.79 754.449 670.451 811.181 670.451Z" fill="#FACC15"/>
<g id="Group 1_3">
<path id="Ellipse 5" d="M735.175 429.186C735.175 446.475 720.945 460.491 703.391 460.491C685.838 460.491 671.607 446.475 671.607 429.186C671.607 411.896 685.838 397.88 703.391 397.88C720.945 397.88 735.175 411.896 735.175 429.186Z" fill="#BAE6FD"/>
<path id="Ellipse 5 (Stroke)_3" fill-rule="evenodd" clip-rule="evenodd" d="M703.391 457.747C719.439 457.747 732.411 444.939 732.411 429.186C732.411 413.432 719.439 400.624 703.391 400.624C687.343 400.624 674.371 413.432 674.371 429.186C674.371 444.939 687.343 457.747 703.391 457.747ZM703.391 460.491C720.945 460.491 735.175 446.475 735.175 429.186C735.175 411.896 720.945 397.88 703.391 397.88C685.838 397.88 671.607 411.896 671.607 429.186C671.607 446.475 685.838 460.491 703.391 460.491Z" fill="#BAE6FD"/>
</g>
</g>
</g>
<g id="Frame 4">
<g clip-path="url(#clip2_835_6845)">
<rect x="852.178" y="279.888" width="184.255" height="312.816" rx="20" fill="white"/>
<path id="Ellipse 5_2" d="M1078.81 505.353C1078.81 527.833 1060.66 546.056 1038.27 546.056C1015.89 546.056 997.738 527.833 997.738 505.353C997.738 482.874 1015.89 464.651 1038.27 464.651C1060.66 464.651 1078.81 482.874 1078.81 505.353Z" fill="white"/>
<path id="Ellipse 5 (Stroke)_4" fill-rule="evenodd" clip-rule="evenodd" d="M1038.27 543.312C1059.11 543.312 1076.05 526.347 1076.05 505.353C1076.05 484.36 1059.11 467.395 1038.27 467.395C1017.44 467.395 1000.5 484.36 1000.5 505.353C1000.5 526.347 1017.44 543.312 1038.27 543.312ZM1038.27 546.056C1060.66 546.056 1078.81 527.833 1078.81 505.353C1078.81 482.874 1060.66 464.651 1038.27 464.651C1015.89 464.651 997.738 482.874 997.738 505.353C997.738 527.833 1015.89 546.056 1038.27 546.056Z" fill="#BAE6FD"/>
<path id="Ellipse 6" d="M1005.11 390.105C1005.11 420.162 980.773 444.528 950.754 444.528C920.734 444.528 896.398 420.162 896.398 390.105C896.398 360.049 920.734 335.683 950.754 335.683C980.773 335.683 1005.11 360.049 1005.11 390.105Z" fill="#BAE6FD"/>
<g id="Frame 6">
<path id="Star 1" d="M886.264 494.835L888.863 502.259L896.778 502.419L890.47 507.167L892.762 514.69L886.264 510.201L879.766 514.69L882.059 507.167L875.75 502.419L883.665 502.259L886.264 494.835Z" fill="#FACC15"/>
<path id="Star 2" d="M924.036 494.835L926.635 502.259L934.55 502.419L928.241 507.167L930.534 514.69L924.036 510.201L917.538 514.69L919.83 507.167L913.521 502.419L921.436 502.259L924.036 494.835Z" fill="#FACC15"/>
<path id="Star 4" d="M961.809 494.835L964.408 502.259L972.323 502.419L966.015 507.167L968.307 514.69L961.809 510.201L955.311 514.69L957.603 507.167L951.295 502.419L959.21 502.259L961.809 494.835Z" fill="#FACC15"/>
<path id="Star 5" d="M999.581 494.835L1002.18 502.259L1010.09 502.419L1003.79 507.167L1006.08 514.69L999.581 510.201L993.082 514.69L995.375 507.167L989.066 502.419L996.981 502.259L999.581 494.835Z" fill="#FACC15"/>
<path id="Star 3" d="M1037.35 494.835L1039.95 502.259L1047.87 502.419L1041.56 507.167L1043.85 514.69L1037.35 510.201L1030.85 514.69L1033.15 507.167L1026.84 502.419L1034.75 502.259L1037.35 494.835Z" fill="#FACC15"/>
</g>
</g>
</g>
</g>
<defs>
<clipPath id="clip0_835_6845">
<rect x="638.441" y="65.856" width="184.255" height="250.619" rx="20" fill="white"/>
</clipPath>
<clipPath id="clip1_835_6845">
<rect x="638.441" y="345.744" width="184.255" height="279.888" rx="20" fill="white"/>
</clipPath>
<clipPath id="clip2_835_6845">
<rect x="852.178" y="279.888" width="184.255" height="312.816" rx="20" fill="white"/>
</clipPath>
</defs>
</svg>
