<svg width="244" height="295" viewBox="0 0 244 295" fill="none" xmlns="http://www.w3.org/2000/svg">
<path id="Rectangle 43" d="M222.147 83.2026C215.335 43.5077 211.928 23.6603 197.965 11.8891C184.001 0.11792 163.864 0.11792 123.588 0.11792H100C52.8596 0.11792 29.2893 0.11792 14.6447 14.7626C1.90735e-06 29.4072 1.90735e-06 52.9775 1.90735e-06 100.118V187.08C1.90735e-06 241.874 1.90735e-06 269.271 17.68 284.249C35.36 299.227 62.3845 294.725 116.433 285.72L153.876 279.482C200.584 271.701 223.938 267.81 235.977 250.87C248.016 233.93 244.011 210.596 236.002 163.926L222.147 83.2026Z" fill="#008000" fill-opacity="0.91"/>
</svg>
